<svg xmlns="http://www.w3.org/2000/svg" viewBox="0 0 502 266">
<title>Cisco DCN</title>
<g stroke="white" stroke-linecap="round" stroke-width="22">
    <svg x="0" y="71" height="45" width="22" viewBox="0 0 22 45"><path d="M11 11v23"></path></svg>
    <svg x="60" y="41" height="75" width="22" viewBox="0 0 22 75"><path d="M11 11v53"></path></svg>
    <svg x="120" y="0" height="137" width="22" viewBox="0 0 22 137"><path d="M11 11v115"></path></svg>
    <svg x="180" y="41" height="75" width="22" viewBox="0 0 22 75"><path d="M11 11v53"></path></svg>
    <svg x="240" y="71" height="45" width="22" viewBox="0 0 22 45"><path d="M11 11v23"></path></svg>
    <svg x="300" y="41" height="75" width="22" viewBox="0 0 22 75"><path d="M11 11v53"></path></svg>
    <svg x="360" y="0" height="137" width="22" viewBox="0 0 22 137"><path d="M11 11v115"></path></svg>
    <svg x="420" y="41" height="75" width="22" viewBox="0 0 22 75"><path d="M11 11v53"></path></svg>
    <svg x="480" y="71" height="45" width="22" viewBox="0 0 22 45"><path d="M11 11v23"></path></svg>
</g>
<g stroke="white" stroke-linecap="round" stroke-width="22">
    <svg x="0" y="71" height="45" width="22" viewBox="0 0 22 45"><path d="M11 11v23"></path></svg>
    <svg x="60" y="41" height="75" width="22" viewBox="0 0 22 75"><path d="M11 11v53"></path></svg>
    <svg x="120" y="0" height="137" width="22" viewBox="0 0 22 137"><path d="M11 11v115"></path></svg>
    <svg x="180" y="41" height="75" width="22" viewBox="0 0 22 75"><path d="M11 11v53"></path></svg>
    <svg x="240" y="71" height="45" width="22" viewBox="0 0 22 45"><path d="M11 11v23"></path></svg>
    <svg x="300" y="41" height="75" width="22" viewBox="0 0 22 75"><path d="M11 11v53"></path></svg>
    <svg x="360" y="0" height="137" width="22" viewBox="0 0 22 137"><path d="M11 11v115"></path></svg>
    <svg x="420" y="41" height="75" width="22" viewBox="0 0 22 75"><path d="M11 11v53"></path></svg>
    <svg x="480" y="71" height="45" width="22" viewBox="0 0 22 45"><path d="M11 11v23"></path></svg>
</g>
<g fill="white">
    <path d="M142.07 176.211h22.007v87.323H142.07z"></path>
    <path d="M341.737 201.232c-.904-.503-8.039-4.623-18.49-4.623-14.269 0-24.116 9.949-24.116 23.313 0 12.963 9.445 23.313 24.116 23.313 10.35 0 17.586-4.12 18.49-4.622v23.413c-2.814.804-10.25 3.115-20.097 3.115-24.82 0-46.526-17.082-46.526-45.219 0-26.026 19.696-45.219 46.526-45.219 10.35 0 17.987 2.513 20.097 3.115v23.414z"></path>
    <path d="M111.824 201.232c-.905-.503-7.939-4.623-18.49-4.623-14.269 0-24.117 9.949-24.117 23.313 0 12.963 9.446 23.313 24.117 23.313 10.35 0 17.585-4.12 18.49-4.622v23.413c-2.714.804-10.25 3.115-20.098 3.115-24.72 0-46.525-17.082-46.525-45.219 0-26.026 19.695-45.219 46.525-45.219 10.35 0 17.987 2.513 20.098 3.115v23.414z"></path>
    <path d="M457.196 219.822c0 25.021-19.293 45.219-46.123 45.219s-46.124-20.198-46.124-45.22c0-24.92 19.294-45.218 46.124-45.218 26.83.1 46.123 20.298 46.123 45.219zm-46.123-22.911c-13.064 0-22.81 10.25-22.81 22.91 0 12.662 9.746 23.012 22.81 23.012 13.063 0 22.81-10.25 22.81-23.011 0-12.661-9.747-22.911-22.81-22.911z"></path>
    <path d="M247.682 196.107c-.302-.1-9.647-2.713-17.184-2.713-8.843 0-13.666 2.914-13.666 7.134 0 5.326 6.431 7.135 10.15 8.34l6.028 1.91c14.27 4.522 20.801 14.37 20.801 25.021 0 21.906-19.293 29.342-36.175 29.342-11.757 0-22.71-2.11-23.815-2.411v-20.098c1.909.503 11.154 3.216 20.8 3.216 10.953 0 15.978-3.216 15.978-8.14 0-4.42-4.321-6.933-9.848-8.742-1.306-.402-3.316-1.105-4.723-1.507-12.26-3.92-22.509-11.054-22.509-25.524 0-16.279 12.26-27.332 32.558-27.332 10.752 0 20.8 2.613 21.504 2.814v18.69h.1z"></path>
</g>
</svg>